<svg width="31" height="31" viewBox="0 0 31 31" fill="none" xmlns="http://www.w3.org/2000/svg">
<ellipse cx="15.2297" cy="15.268" rx="15.2297" ry="15.268" fill="#FAC02E"/>
<path d="M14.9174 9.37112C14.4656 9.37112 14.024 9.23245 13.6484 8.97263C13.2727 8.71282 12.9799 8.34353 12.8071 7.91147C12.6342 7.47941 12.5889 7.00398 12.6771 6.54531C12.7652 6.08664 12.9828 5.66533 13.3022 5.33464C13.6217 5.00396 14.0287 4.77876 14.4718 4.68752C14.9149 4.59629 15.3742 4.64311 15.7915 4.82208C16.2089 5.00104 16.5657 5.30411 16.8167 5.69295C17.0677 6.0818 17.2016 6.53895 17.2016 7.00661C17.201 7.63351 16.9601 8.23455 16.5319 8.67783C16.1036 9.12112 15.523 9.37045 14.9174 9.37112Z" fill="black"/>
<path d="M22.0963 9.40494L22.078 9.41L22.0608 9.41549C22.02 9.42731 21.9792 9.43998 21.9385 9.45307C21.1794 9.68361 17.4952 10.7586 14.8998 10.7586C12.4879 10.7586 9.13701 9.8297 8.06506 9.51429C7.95837 9.47161 7.84942 9.43524 7.73874 9.40536C6.96374 9.19424 6.43347 10.0092 6.43347 10.754C6.43347 11.4916 7.07387 11.8429 7.72039 12.095V12.1068L11.6044 13.3625C12.0013 13.52 12.1073 13.6809 12.1591 13.8202C12.3276 14.2674 12.193 15.1528 12.1453 15.4619L11.9087 17.362L10.5957 24.8013C10.5916 24.8216 10.5879 24.8423 10.5846 24.8634L10.5753 24.917C10.4806 25.5989 10.9644 26.2606 11.8805 26.2606C12.68 26.2606 13.0328 25.6893 13.1858 24.9119C13.3388 24.1346 14.3279 18.2588 14.899 18.2588C15.47 18.2588 16.6464 24.9119 16.6464 24.9119C16.7994 25.6893 17.1522 26.2606 17.9517 26.2606C18.8703 26.2606 19.354 25.596 19.2569 24.9119C19.2486 24.8544 19.2383 24.7972 19.2259 24.7405L17.895 17.3628L17.6588 15.4627C17.4879 14.3561 17.6254 13.9904 17.6719 13.9047C17.6731 13.9027 17.6742 13.9006 17.6751 13.8984C17.7192 13.8139 17.9199 13.6248 18.3881 13.4428L22.0298 12.125C22.0522 12.1188 22.0742 12.1115 22.0959 12.103C22.7485 11.8497 23.4012 11.4992 23.4012 10.7548C23.4012 10.0104 22.8713 9.19424 22.0963 9.40494Z" fill="black"/>
</svg>
