<svg width="32" height="31" viewBox="0 0 32 31" fill="none" xmlns="http://www.w3.org/2000/svg">
<ellipse cx="16.1622" cy="15.3493" rx="15.2297" ry="15.268" fill="#5DB47F"/>
<path d="M15.8498 9.45242C15.3981 9.45242 14.9564 9.31375 14.5808 9.05393C14.2052 8.79411 13.9124 8.42483 13.7395 7.99277C13.5666 7.56071 13.5214 7.08528 13.6095 6.62661C13.6976 6.16794 13.9152 5.74662 14.2346 5.41594C14.5541 5.08526 14.9611 4.86006 15.4042 4.76882C15.8473 4.67759 16.3066 4.72441 16.724 4.90338C17.1414 5.08234 17.4981 5.38541 17.7491 5.77425C18.0001 6.16309 18.1341 6.62025 18.1341 7.08791C18.1334 7.71481 17.8925 8.31584 17.4643 8.75913C17.0361 9.20242 16.4555 9.45175 15.8498 9.45242Z" fill="white"/>
<path d="M23.0287 9.48623L23.0104 9.4913L22.9933 9.49679C22.9525 9.50861 22.9117 9.52128 22.8709 9.53437C22.1118 9.76491 18.4277 10.8399 15.8322 10.8399C13.4203 10.8399 10.0694 9.911 8.99749 9.59559C8.8908 9.55291 8.78186 9.51654 8.67118 9.48666C7.89617 9.27554 7.36591 10.0905 7.36591 10.8353C7.36591 11.5729 8.0063 11.9242 8.65282 12.1763V12.1881L12.5368 13.4438C12.9337 13.6013 13.0398 13.7622 13.0916 13.9015C13.26 14.3487 13.1254 15.2341 13.0777 15.5432L12.8411 17.4433L11.5281 24.8826C11.524 24.9029 11.5203 24.9236 11.5171 24.9447L11.5077 24.9983C11.4131 25.6802 11.8968 26.3419 12.813 26.3419C13.6124 26.3419 13.9653 25.7706 14.1182 24.9932C14.2712 24.2159 15.2603 18.3401 15.8314 18.3401C16.4025 18.3401 17.5788 24.9932 17.5788 24.9932C17.7318 25.7706 18.0846 26.3419 18.8841 26.3419C19.8027 26.3419 20.2865 25.6773 20.1894 24.9932C20.181 24.9357 20.1707 24.8785 20.1584 24.8218L18.8274 17.4441L18.5912 15.544C18.4203 14.4374 18.5578 14.0717 18.6043 13.986C18.6055 13.984 18.6066 13.9819 18.6075 13.9797C18.6516 13.8952 18.8523 13.7061 19.3206 13.5241L22.9623 12.2063C22.9846 12.2001 23.0067 12.1928 23.0283 12.1843C23.681 11.931 24.3336 11.5805 24.3336 10.8361C24.3336 10.0917 23.8037 9.27554 23.0287 9.48623Z" fill="white"/>
</svg>
