<svg width="31" height="31" viewBox="0 0 31 31" fill="none" xmlns="http://www.w3.org/2000/svg">
<ellipse cx="15.2297" cy="15.268" rx="15.2297" ry="15.268" fill="#FAC02E"/>
<path d="M7.61487 21.1455C7.61487 20.1216 8.00778 19.1397 8.70717 18.4157C9.40656 17.6918 10.3551 17.285 11.3442 17.285H18.8029C19.792 17.285 20.7406 17.6918 21.4399 18.4157C22.1393 19.1397 22.5322 20.1216 22.5322 21.1455C22.5322 21.6574 22.3358 22.1484 21.9861 22.5103C21.6364 22.8723 21.1621 23.0757 20.6676 23.0757H9.47954C8.985 23.0757 8.51071 22.8723 8.16102 22.5103C7.81132 22.1484 7.61487 21.6574 7.61487 21.1455Z" stroke="black" stroke-width="1.5" stroke-linejoin="round"/>
<path d="M15.0736 13.4247C16.6184 13.4247 17.8706 12.1284 17.8706 10.5294C17.8706 8.93032 16.6184 7.63403 15.0736 7.63403C13.5289 7.63403 12.2766 8.93032 12.2766 10.5294C12.2766 12.1284 13.5289 13.4247 15.0736 13.4247Z" stroke="black" stroke-width="1.5"/>
</svg>
