<svg width="32" height="31" viewBox="0 0 32 31" fill="none" xmlns="http://www.w3.org/2000/svg">
<ellipse cx="16.1622" cy="15.3974" rx="15.2297" ry="15.268" fill="#5DB47F"/>
<path d="M8.5473 21.2749C8.5473 20.251 8.94021 19.2691 9.6396 18.5451C10.339 17.8212 11.2876 17.4144 12.2766 17.4144H19.7353C20.7244 17.4144 21.673 17.8212 22.3724 18.5451C23.0718 19.2691 23.4647 20.251 23.4647 21.2749C23.4647 21.7868 23.2682 22.2777 22.9185 22.6397C22.5688 23.0017 22.0946 23.2051 21.6 23.2051H10.412C9.91743 23.2051 9.44315 23.0017 9.09345 22.6397C8.74376 22.2777 8.5473 21.7868 8.5473 21.2749Z" stroke="white" stroke-width="1.5" stroke-linejoin="round"/>
<path d="M16.0061 13.5541C17.5508 13.5541 18.8031 12.2578 18.8031 10.6588C18.8031 9.05971 17.5508 7.76343 16.0061 7.76343C14.4613 7.76343 13.209 9.05971 13.209 10.6588C13.209 12.2578 14.4613 13.5541 16.0061 13.5541Z" stroke="white" stroke-width="1.5"/>
</svg>
