<svg width="164" height="129" viewBox="0 0 164 129" fill="none" xmlns="http://www.w3.org/2000/svg">
<path fill-rule="evenodd" clip-rule="evenodd" d="M49.2369 0.0257072C40.5861 0.0257072 32.2895 3.41692 26.1725 9.45331C20.0554 15.4897 16.6189 23.6768 16.6189 32.2136C16.6189 40.7503 20.0554 48.9374 26.1725 54.9738C32.2895 61.0102 40.5861 64.4014 49.2369 64.4014C57.8878 64.4014 66.1843 61.0102 72.3013 54.9738C78.4184 48.9374 81.8549 40.7503 81.8549 32.2136C81.8549 23.6768 78.4184 15.4897 72.3013 9.45331C66.1843 3.41692 57.8878 0.0257072 49.2369 0.0257072ZM32.9279 72.4484C24.277 72.4484 15.9805 75.8396 9.86345 81.876C3.74638 87.9124 0.309845 96.0995 0.309845 104.636V112.683C0.309845 116.952 2.02811 121.045 5.08665 124.063C8.14518 127.081 12.2934 128.777 16.6189 128.777H81.8549C86.1804 128.777 90.3286 127.081 93.3872 124.063C96.4457 121.045 98.164 116.952 98.164 112.683V104.636C98.164 96.0995 94.7274 87.9124 88.6104 81.876C82.4933 75.8396 74.1968 72.4484 65.5459 72.4484H32.9279ZM92.0481 55.59C95.9459 48.6696 98.164 40.7031 98.164 32.2136C98.1657 24.0333 96.0612 15.9868 92.0481 8.82908C96.6784 4.50569 102.491 1.61588 108.767 0.516805C115.044 -0.58227 121.509 0.157563 127.364 2.64487C133.219 5.13218 138.207 9.25794 141.712 14.5122C145.217 19.7666 147.084 25.9191 147.084 32.2095C147.084 38.4999 145.217 44.6525 141.712 49.9068C138.207 55.1611 133.219 59.2869 127.364 61.7742C121.509 64.2615 115.044 65.0013 108.767 63.9023C102.491 62.8032 96.6784 59.9134 92.0481 55.59ZM110.118 128.777C112.891 124.045 114.481 118.549 114.481 112.683V104.636C114.496 92.757 110.058 81.2922 102.021 72.4484H130.782C139.433 72.4484 147.729 75.8396 153.846 81.876C159.964 87.9124 163.4 96.0995 163.4 104.636V112.683C163.4 116.952 161.682 121.045 158.623 124.063C155.565 127.081 151.416 128.777 147.091 128.777H110.118Z" fill="black"/>
</svg>
