<svg width="14" height="14" viewBox="0 0 14 14" fill="none" xmlns="http://www.w3.org/2000/svg">
<path d="M12 5.33337H8.66671V2.00004C8.66671 1.55801 8.49111 1.13409 8.17855 0.821529C7.86599 0.508969 7.44207 0.333374 7.00004 0.333374C6.55801 0.333374 6.13409 0.508969 5.82153 0.821529C5.50897 1.13409 5.33337 1.55801 5.33337 2.00004L5.39254 5.33337H2.00004C1.55801 5.33337 1.13409 5.50897 0.821529 5.82153C0.508969 6.13409 0.333374 6.55801 0.333374 7.00004C0.333374 7.44207 0.508969 7.86599 0.821529 8.17855C1.13409 8.49111 1.55801 8.66671 2.00004 8.66671L5.39254 8.60754L5.33337 12C5.33337 12.4421 5.50897 12.866 5.82153 13.1786C6.13409 13.4911 6.55801 13.6667 7.00004 13.6667C7.44207 13.6667 7.86599 13.4911 8.17855 13.1786C8.49111 12.866 8.66671 12.4421 8.66671 12V8.60754L12 8.66671C12.4421 8.66671 12.866 8.49111 13.1786 8.17855C13.4911 7.86599 13.6667 7.44207 13.6667 7.00004C13.6667 6.55801 13.4911 6.13409 13.1786 5.82153C12.866 5.50897 12.4421 5.33337 12 5.33337Z" fill="white"/>
</svg>
