<svg width="32" height="31" viewBox="0 0 32 31" fill="none" xmlns="http://www.w3.org/2000/svg">
<ellipse cx="16.1622" cy="15.7375" rx="15.2297" ry="15.268" fill="#5DB47F"/>
<path d="M16.7061 7.01294C14.975 7.01294 13.3148 7.71328 12.0908 8.95989C10.8667 10.2065 10.179 11.8973 10.179 13.6602V15.9569L8.63376 19.1044C8.57143 19.2311 8.54194 19.3719 8.5481 19.5134C8.55426 19.655 8.59587 19.7926 8.66896 19.9131C8.74205 20.0337 8.8442 20.1332 8.9657 20.2023C9.08721 20.2713 9.22403 20.3075 9.36316 20.3075H24.049C24.1881 20.3075 24.325 20.2713 24.4465 20.2023C24.568 20.1332 24.6701 20.0337 24.7432 19.9131C24.8163 19.7926 24.8579 19.655 24.8641 19.5134C24.8702 19.3719 24.8407 19.2311 24.7784 19.1044L23.2331 15.9569V13.6602C23.2331 11.8973 22.5455 10.2065 21.3214 8.95989C20.0973 7.71328 18.4372 7.01294 16.7061 7.01294ZM16.7061 24.4621C15.9824 24.4623 15.2792 24.2175 14.7071 23.7663C14.1349 23.3151 13.7263 22.683 13.5454 21.9694H19.8668C19.6859 22.683 19.2772 23.3151 18.7051 23.7663C18.1329 24.2175 17.4297 24.4623 16.7061 24.4621Z" fill="white"/>
</svg>
