<svg width="35" height="35" viewBox="0 0 35 35" fill="none" xmlns="http://www.w3.org/2000/svg">
<path d="M14.5833 8.89584V4.37501C14.5833 3.50001 15.1667 2.91667 16.0417 2.91667H18.9583C19.8333 2.91667 20.4167 3.50001 20.4167 4.37501V8.89584" stroke="#5DB47F" stroke-width="2" stroke-linecap="round" stroke-linejoin="round"/>
<path d="M24.7917 21.1458C24.7917 19.3958 23.4792 17.9375 21.875 17.6458V17.5C22.6486 17.5 23.3904 17.1927 23.9374 16.6457C24.4844 16.0987 24.7917 15.3569 24.7917 14.5833C24.7917 13.0362 24.1771 11.5525 23.0831 10.4585C21.9892 9.36458 20.5054 8.75 18.9583 8.75H16.0417C14.4946 8.75 13.0108 9.36458 11.9169 10.4585C10.8229 11.5525 10.2083 13.0362 10.2083 14.5833C10.2083 15.3569 10.5156 16.0987 11.0626 16.6457C11.6096 17.1927 12.3515 17.5 13.125 17.5V17.6458C12.3677 17.8667 11.7025 18.3273 11.2292 18.9583C10.7559 19.5894 10.5 20.357 10.5 21.1458C10.5 21.9347 10.7559 22.7023 11.2292 23.3333C11.7025 23.9644 12.3677 24.425 13.125 24.6458V24.7917C12.3515 24.7917 11.6096 25.099 11.0626 25.6459C10.5156 26.1929 10.2083 26.9348 10.2083 27.7083V29.1667C10.2083 29.9402 10.5156 30.6821 11.0626 31.2291C11.6096 31.776 12.3515 32.0833 13.125 32.0833H21.875C22.6486 32.0833 23.3904 31.776 23.9374 31.2291C24.4844 30.6821 24.7917 29.9402 24.7917 29.1667V27.7083C24.7917 26.9348 24.4844 26.1929 23.9374 25.6459C23.3904 25.099 22.6486 24.7917 21.875 24.7917V24.6458C23.4792 24.3542 24.7917 22.8958 24.7917 21.1458Z" stroke="#5DB47F" stroke-width="2" stroke-linecap="round" stroke-linejoin="round"/>
</svg>
