<svg width="50" height="50" viewBox="0 0 50 50" fill="none" xmlns="http://www.w3.org/2000/svg">
<path d="M12.35 0C13.39 0 14.2325 0.81 14.2325 1.81V5.46C15.9025 5.43 17.775 5.43 19.8825 5.43H29.92C32.025 5.43 33.8975 5.43 35.5675 5.4625V1.8125C35.5675 0.8125 36.41 0 37.45 0C38.49 0 39.3325 0.81 39.3325 1.81V5.625C42.945 5.9025 45.3175 6.585 47.0575 8.2625C48.8025 9.9375 49.5125 12.2175 49.8 15.6925L50 17.5H0V15.69C0.29 12.215 1 9.935 2.7425 8.26C4.485 6.585 6.855 5.9 10.4675 5.6225V1.81C10.4675 0.81 11.31 0 12.35 0Z" fill="black"/>
<path opacity="0.5" d="M50 30V25C50 22.9025 49.99 19.1625 49.9575 17.5H0.0250155C-0.00748452 19.1625 1.55063e-05 22.9025 1.55063e-05 25V30C1.55063e-05 39.4275 1.53184e-05 44.1425 2.93002 47.07C5.86002 49.9975 10.57 50 20 50H30C39.425 50 44.14 50 47.07 47.07C50 44.14 50 39.43 50 30Z" fill="black"/>
<path d="M40 37.5C40 38.163 39.7366 38.7989 39.2678 39.2678C38.7989 39.7366 38.163 40 37.5 40C36.837 40 36.2011 39.7366 35.7322 39.2678C35.2634 38.7989 35 38.163 35 37.5C35 36.837 35.2634 36.2011 35.7322 35.7322C36.2011 35.2634 36.837 35 37.5 35C38.163 35 38.7989 35.2634 39.2678 35.7322C39.7366 36.2011 40 36.837 40 37.5ZM40 27.5C40 28.163 39.7366 28.7989 39.2678 29.2678C38.7989 29.7366 38.163 30 37.5 30C36.837 30 36.2011 29.7366 35.7322 29.2678C35.2634 28.7989 35 28.163 35 27.5C35 26.837 35.2634 26.2011 35.7322 25.7322C36.2011 25.2634 36.837 25 37.5 25C38.163 25 38.7989 25.2634 39.2678 25.7322C39.7366 26.2011 40 26.837 40 27.5ZM27.5 37.5C27.5 38.163 27.2366 38.7989 26.7678 39.2678C26.2989 39.7366 25.663 40 25 40C24.337 40 23.7011 39.7366 23.2322 39.2678C22.7634 38.7989 22.5 38.163 22.5 37.5C22.5 36.837 22.7634 36.2011 23.2322 35.7322C23.7011 35.2634 24.337 35 25 35C25.663 35 26.2989 35.2634 26.7678 35.7322C27.2366 36.2011 27.5 36.837 27.5 37.5ZM27.5 27.5C27.5 28.163 27.2366 28.7989 26.7678 29.2678C26.2989 29.7366 25.663 30 25 30C24.337 30 23.7011 29.7366 23.2322 29.2678C22.7634 28.7989 22.5 28.163 22.5 27.5C22.5 26.837 22.7634 26.2011 23.2322 25.7322C23.7011 25.2634 24.337 25 25 25C25.663 25 26.2989 25.2634 26.7678 25.7322C27.2366 26.2011 27.5 26.837 27.5 27.5ZM15 37.5C15 38.163 14.7366 38.7989 14.2678 39.2678C13.7989 39.7366 13.163 40 12.5 40C11.837 40 11.2011 39.7366 10.7322 39.2678C10.2634 38.7989 10 38.163 10 37.5C10 36.837 10.2634 36.2011 10.7322 35.7322C11.2011 35.2634 11.837 35 12.5 35C13.163 35 13.7989 35.2634 14.2678 35.7322C14.7366 36.2011 15 36.837 15 37.5ZM15 27.5C15 28.163 14.7366 28.7989 14.2678 29.2678C13.7989 29.7366 13.163 30 12.5 30C11.837 30 11.2011 29.7366 10.7322 29.2678C10.2634 28.7989 10 28.163 10 27.5C10 26.837 10.2634 26.2011 10.7322 25.7322C11.2011 25.2634 11.837 25 12.5 25C13.163 25 13.7989 25.2634 14.2678 25.7322C14.7366 26.2011 15 26.837 15 27.5Z" fill="black"/>
</svg>
