<svg width="31" height="31" viewBox="0 0 31 31" fill="none" xmlns="http://www.w3.org/2000/svg">
<ellipse cx="15.2297" cy="15.268" rx="15.2297" ry="15.268" fill="#FAC02E"/>
<path fill-rule="evenodd" clip-rule="evenodd" d="M10.552 7.63455C9.45565 7.63455 8.4042 8.06541 7.62897 8.83234C6.85373 9.59927 6.41821 10.6395 6.41821 11.7241C6.41821 12.8087 6.85373 13.8489 7.62897 14.6158C8.4042 15.3827 9.45565 15.8136 10.552 15.8136C11.6483 15.8136 12.6998 15.3827 13.475 14.6158C14.2503 13.8489 14.6858 12.8087 14.6858 11.7241C14.6858 10.6395 14.2503 9.59927 13.475 8.83234C12.6998 8.06541 11.6483 7.63455 10.552 7.63455ZM8.4851 16.836C7.38875 16.836 6.33731 17.2668 5.56208 18.0338C4.78684 18.8007 4.35132 19.8409 4.35132 20.9255V21.9479C4.35132 22.4902 4.56908 23.0103 4.9567 23.3937C5.34431 23.7772 5.87004 23.9926 6.41821 23.9926H14.6858C15.234 23.9926 15.7597 23.7772 16.1473 23.3937C16.5349 23.0103 16.7527 22.4902 16.7527 21.9479V20.9255C16.7527 19.8409 16.3171 18.8007 15.5419 18.0338C14.7667 17.2668 13.7152 16.836 12.6189 16.836H8.4851ZM15.9776 14.6941C16.4716 13.8148 16.7527 12.8027 16.7527 11.7241C16.7529 10.6848 16.4862 9.66243 15.9776 8.75303C16.5644 8.20374 17.301 7.83658 18.0965 7.69694C18.8919 7.5573 19.7113 7.6513 20.4533 7.96732C21.1953 8.28333 21.8275 8.80752 22.2716 9.47509C22.7158 10.1427 22.9525 10.9243 22.9525 11.7236C22.9525 12.5228 22.7158 13.3045 22.2716 13.972C21.8275 14.6396 21.1953 15.1638 20.4533 15.4798C19.7113 15.7958 18.8919 15.8898 18.0965 15.7502C17.301 15.6105 16.5644 15.2434 15.9776 14.6941ZM18.2677 23.9926C18.6191 23.3915 18.8206 22.6932 18.8206 21.9479V20.9255C18.8225 19.4162 18.2601 17.9596 17.2415 16.836H20.8865C21.9828 16.836 23.0342 17.2668 23.8095 18.0338C24.5847 18.8007 25.0202 19.8409 25.0202 20.9255V21.9479C25.0202 22.4902 24.8025 23.0103 24.4149 23.3937C24.0272 23.7772 23.5015 23.9926 22.9533 23.9926H18.2677Z" fill="black"/>
</svg>
