<svg width="32" height="31" viewBox="0 0 32 31" fill="none" xmlns="http://www.w3.org/2000/svg">
<ellipse cx="15.9864" cy="15.5988" rx="15.2297" ry="15.268" fill="#5DB47F"/>
<path fill-rule="evenodd" clip-rule="evenodd" d="M11.3087 7.96536C10.2124 7.96536 9.16092 8.39622 8.38568 9.16315C7.61045 9.93008 7.17492 10.9703 7.17492 12.0549C7.17492 13.1395 7.61045 14.1797 8.38568 14.9466C9.16092 15.7135 10.2124 16.1444 11.3087 16.1444C12.4051 16.1444 13.4565 15.7135 14.2317 14.9466C15.007 14.1797 15.4425 13.1395 15.4425 12.0549C15.4425 10.9703 15.007 9.93008 14.2317 9.16315C13.4565 8.39622 12.4051 7.96536 11.3087 7.96536ZM9.24182 17.1668C8.14547 17.1668 7.09402 17.5976 6.31879 18.3646C5.54355 19.1315 5.10803 20.1717 5.10803 21.2563V22.2787C5.10803 22.821 5.32579 23.3411 5.71341 23.7245C6.10103 24.108 6.62675 24.3234 7.17492 24.3234H15.4425C15.9907 24.3234 16.5164 24.108 16.904 23.7245C17.2916 23.3411 17.5094 22.821 17.5094 22.2787V21.2563C17.5094 20.1717 17.0739 19.1315 16.2986 18.3646C15.5234 17.5976 14.4719 17.1668 13.3756 17.1668H9.24182ZM16.7343 15.0249C17.2283 14.1456 17.5094 13.1335 17.5094 12.0549C17.5096 11.0156 17.2429 9.99324 16.7343 9.08384C17.3211 8.53455 18.0577 8.16739 18.8532 8.02775C19.6486 7.88811 20.468 7.98211 21.21 8.29813C21.952 8.61414 22.5842 9.13833 23.0283 9.8059C23.4725 10.4735 23.7092 11.2552 23.7092 12.0544C23.7092 12.8536 23.4725 13.6353 23.0283 14.3028C22.5842 14.9704 21.952 15.4946 21.21 15.8106C20.468 16.1266 19.6486 16.2206 18.8532 16.081C18.0577 15.9413 17.3211 15.5742 16.7343 15.0249ZM19.0244 24.3234C19.3758 23.7223 19.5773 23.024 19.5773 22.2787V21.2563C19.5792 19.747 19.0168 18.2904 17.9982 17.1668H21.6432C22.7395 17.1668 23.791 17.5976 24.5662 18.3646C25.3414 19.1315 25.777 20.1717 25.777 21.2563V22.2787C25.777 22.821 25.5592 23.3411 25.1716 23.7245C24.784 24.108 24.2582 24.3234 23.7101 24.3234H19.0244Z" fill="white"/>
</svg>
