<svg width="27" height="27" viewBox="0 0 27 27" fill="none" xmlns="http://www.w3.org/2000/svg">
<path d="M18.7963 7.44281L11.7092 10.3474C11.2229 10.5394 10.7812 10.8293 10.4115 11.199C10.0418 11.5687 9.75191 12.0104 9.55984 12.4967L6.65529 19.5838C6.60759 19.7052 6.60983 19.8405 6.66152 19.9602C6.71322 20.0799 6.81017 20.1743 6.93122 20.2228C7.04836 20.2662 7.17715 20.2662 7.29429 20.2228L14.3814 17.3183C14.8677 17.1262 15.3094 16.8363 15.6791 16.4666C16.0488 16.0969 16.3387 15.6552 16.5307 15.1689L19.4353 8.08181C19.483 7.96044 19.4808 7.82514 19.4291 7.70542C19.3774 7.5857 19.2804 7.4913 19.1594 7.44281C19.0422 7.39944 18.9134 7.39944 18.7963 7.44281ZM13.0743 15.256C12.7871 15.256 12.5063 15.1709 12.2675 15.0113C12.0287 14.8517 11.8425 14.6249 11.7326 14.3595C11.6227 14.0942 11.5939 13.8021 11.65 13.5204C11.706 13.2387 11.8443 12.98 12.0474 12.7768C12.2505 12.5737 12.5093 12.4354 12.791 12.3794C13.0727 12.3234 13.3647 12.3521 13.6301 12.462C13.8955 12.572 14.1223 12.7581 14.2819 12.9969C14.4414 13.2357 14.5266 13.5165 14.5266 13.8038C14.5266 14.1889 14.3736 14.5583 14.1012 14.8307C13.8289 15.103 13.4595 15.256 13.0743 15.256Z" fill="#5DB47F"/>
<path d="M13.0744 26.8744C10.4893 26.8744 7.96224 26.1079 5.81281 24.6717C3.66339 23.2355 1.98811 21.1941 0.998841 18.8058C0.00956941 16.4175 -0.249269 13.7895 0.255057 11.2541C0.759383 8.71864 2.00422 6.38971 3.83216 4.56177C5.66009 2.73384 7.98903 1.489 10.5244 0.984671C13.0599 0.480345 15.6879 0.739184 18.0762 1.72846C20.4645 2.71773 22.5058 4.393 23.942 6.54242C25.3782 8.69185 26.1448 11.2189 26.1448 13.804C26.1448 17.2705 24.7678 20.595 22.3166 23.0462C19.8654 25.4974 16.5409 26.8744 13.0744 26.8744ZM13.0744 2.91194C10.9201 2.91194 8.81426 3.55074 7.02307 4.74758C5.23188 5.94441 3.83582 7.64551 3.01143 9.63577C2.18704 11.626 1.97134 13.8161 2.39161 15.9289C2.81188 18.0418 3.84925 19.9825 5.37253 21.5058C6.89581 23.0291 8.83658 24.0665 10.9494 24.4867C13.0623 24.907 15.2523 24.6913 17.2426 23.8669C19.2328 23.0425 20.9339 21.6465 22.1308 19.8553C23.3276 18.0641 23.9664 15.9582 23.9664 13.804C23.9664 10.9152 22.8189 8.1448 20.7762 6.10214C18.7335 4.05949 15.9631 2.91194 13.0744 2.91194Z" fill="#5DB47F"/>
</svg>
