<svg width="31" height="37" viewBox="0 0 31 37" fill="none" xmlns="http://www.w3.org/2000/svg">
<path d="M25.4407 34.637L19.1324 25.6251M28.1443 16.6132L15.5277 13.0085M15.5277 13.0085L15.5277 22.0203L8.31817 34.637M15.5277 13.0085L2.91105 5.79896M17.33 3.99659C17.33 4.47461 17.1401 4.93305 16.8021 5.27106C16.4641 5.60907 16.0057 5.79896 15.5277 5.79896C15.0496 5.79896 14.5912 5.60907 14.2532 5.27106C13.9152 4.93305 13.7253 4.47461 13.7253 3.99659C13.7253 3.51857 13.9152 3.06013 14.2532 2.72212C14.5912 2.38411 15.0496 2.19421 15.5277 2.19421C16.0057 2.19421 16.4641 2.38411 16.8021 2.72212C17.1401 3.06013 17.33 3.51857 17.33 3.99659Z" stroke="#5DB47F" stroke-width="4" stroke-linecap="round" stroke-linejoin="round"/>
</svg>
