<svg width="35" height="55" viewBox="0 0 35 55" fill="none" xmlns="http://www.w3.org/2000/svg">
<path d="M18.75 10.75C17.375 10.75 16.1983 10.2608 15.22 9.28252C14.2417 8.30418 13.7517 7.12668 13.75 5.75002C13.7483 4.37335 14.2383 3.19668 15.22 2.22002C16.2017 1.24335 17.3783 0.75335 18.75 0.750017C20.1217 0.746684 21.2992 1.23668 22.2825 2.22002C23.2658 3.20335 23.755 4.38002 23.75 5.75002C23.745 7.12002 23.2558 8.29752 22.2825 9.28252C21.3092 10.2675 20.1317 10.7567 18.75 10.75ZM28.75 32.625C28.4167 32.625 28.125 32.5 27.875 32.25C27.625 32 27.5 31.7083 27.5 31.375V30.1875C25.25 29.2292 23.5 28.1567 22.25 26.97C21 25.7833 19.8958 24.1892 18.9375 22.1875C18.4792 23.3542 18.115 24.7817 17.845 26.47C17.575 28.1583 17.4808 29.7517 17.5625 31.25L22.0625 37.625C22.2292 37.8334 22.3442 38.0625 22.4075 38.3125C22.4708 38.5625 22.5017 38.8125 22.5 39.0625V52C22.5 52.7084 22.26 53.3025 21.78 53.7825C21.3 54.2625 20.7067 54.5017 20 54.5C19.2933 54.4984 18.7 54.2584 18.22 53.78C17.74 53.3017 17.5 52.7084 17.5 52V42L13.0625 35.625L12.5625 43.75C12.5625 43.9167 12.3958 44.375 12.0625 45.125L6.5 52.5C6.08333 53.0834 5.54167 53.4167 4.875 53.5C4.20833 53.5834 3.58333 53.4167 3 53C2.41667 52.5834 2.08333 52.0417 2 51.375C1.91667 50.7084 2.08333 50.0834 2.5 49.5L7.5 42.8125V29.5C7.5 28.2083 7.60417 26.8025 7.8125 25.2825C8.02083 23.7625 8.33333 22.3559 8.75 21.0625L5 23.125V29.5C5 30.2083 4.76 30.8025 4.28 31.2825C3.8 31.7625 3.20667 32.0017 2.5 32C1.79333 31.9984 1.2 31.7584 0.72 31.28C0.24 30.8017 0 30.2083 0 29.5V21.6875C0 21.2292 0.104167 20.8017 0.3125 20.405C0.520833 20.0084 0.833333 19.7067 1.25 19.5L11 14C12.0417 13.4167 12.9483 12.9692 13.72 12.6575C14.4917 12.3458 15.21 12.1892 15.875 12.1875C16.9167 12.1875 17.865 12.6358 18.72 13.5325C19.575 14.4292 20.5642 15.835 21.6875 17.75C23.0208 20 24.2292 21.6875 25.3125 22.8125C26.3958 23.9375 27.5625 24.7917 28.8125 25.375C29.2708 25.0417 29.6667 24.8125 30 24.6875C30.3333 24.5625 30.7292 24.5 31.1875 24.5C32.2292 24.5 33.125 24.875 33.875 25.625C34.625 26.375 35 27.25 35 28.25V53.25C35 53.5834 34.875 53.875 34.625 54.125C34.375 54.375 34.0833 54.5 33.75 54.5C33.4167 54.5 33.125 54.375 32.875 54.125C32.625 53.875 32.5 53.5834 32.5 53.25V28.25C32.5 27.9167 32.375 27.625 32.125 27.375C31.875 27.125 31.5833 27 31.25 27C30.9167 27 30.625 27.125 30.375 27.375C30.125 27.625 30 27.9167 30 28.25V31.375C30 31.7083 29.875 32 29.625 32.25C29.375 32.5 29.0833 32.625 28.75 32.625Z" fill="#5DB47F"/>
</svg>
