<svg width="39" height="27" viewBox="0 0 39 27" fill="none" xmlns="http://www.w3.org/2000/svg">
<path d="M25.7095 13.6569C25.7086 10.8323 26.4557 8.05783 27.8748 5.61556L28.4421 4.62825C27.2528 4.34522 26.041 4.16708 24.8205 4.09588C23.1869 2.83755 20.7522 1.34469 17.9451 0.869648L16.2199 0.55246L17.2154 5.15839C14.1128 6.21122 11.3758 8.34963 9.5642 9.82091C9.21376 9.52754 8.84693 9.24088 8.46372 8.96092C5.50702 6.80166 2.31355 6.59318 2.17952 6.58574L0.732819 6.50905L0.93162 7.94682C0.953212 8.09573 1.43718 11.2773 3.28819 13.6443C1.43718 16.012 0.956191 19.1914 0.93162 19.3425L0.732819 20.8048L2.17952 20.7036C2.31355 20.6961 5.50702 20.4884 8.46372 18.3284C8.83998 18.0539 9.20135 17.7717 9.54782 17.4818C11.3623 18.9583 14.1001 21.1004 17.2065 22.1533L16.2199 26.7614L17.9451 26.4472C20.7365 25.9752 23.1631 24.4816 24.7952 23.2217C26.0327 23.1502 27.2615 22.97 28.4674 22.6834L27.8785 21.7021C26.4577 19.259 25.7093 16.4831 25.7095 13.6569Z" fill="#5DB47F"/>
<path d="M37.9311 11.1065C37.4955 10.3709 36.6996 9.25255 35.3854 8.1074C34.0174 6.92922 32.4555 5.99711 30.7691 5.35248L29.9374 6.80663C28.73 8.88564 28.0935 11.2468 28.0923 13.651C28.0911 16.0551 28.7253 18.4169 29.9307 20.4971L30.8055 21.9542C32.4744 21.3174 34.0213 20.3983 35.3787 19.2373C37.742 17.1912 38.8551 14.6246 38.8551 13.6567C38.8551 12.7401 38.2595 11.6657 37.9311 11.1065ZM31.7072 13.6567C31.4716 13.6567 31.2413 13.5868 31.0454 13.4559C30.8494 13.325 30.6967 13.139 30.6066 12.9213C30.5164 12.7036 30.4928 12.4641 30.5388 12.233C30.5848 12.0019 30.6982 11.7896 30.8648 11.623C31.0314 11.4564 31.2437 11.3429 31.4748 11.297C31.7059 11.251 31.9454 11.2746 32.1631 11.3648C32.3808 11.4549 32.5669 11.6076 32.6978 11.8035C32.8287 11.9994 32.8985 12.2298 32.8985 12.4654C32.8985 12.7813 32.773 13.0844 32.5496 13.3078C32.3262 13.5312 32.0232 13.6567 31.7072 13.6567Z" fill="#5DB47F"/>
</svg>
