<svg width="60" height="54" viewBox="0 0 60 54" fill="none" xmlns="http://www.w3.org/2000/svg">
<path d="M37.5235 25.5703L31.6993 37.2188C30.9961 38.6367 28.9571 38.5898 28.3125 37.1484L21.6446 22.3477L18.1289 30.75H7.10159L28.4883 52.6055C29.3203 53.4609 30.668 53.4609 31.5 52.6055L52.8985 30.75H40.1133L37.5235 25.5703ZM55.5118 5.66016L55.2305 5.36719C49.1953 -0.796875 39.3164 -0.796875 33.2696 5.36719L30 8.71875L26.7305 5.37891C20.6953 -0.796876 10.8047 -0.796876 4.76956 5.37891L4.48831 5.66016C-1.21872 11.4961 -1.46481 20.7891 3.63285 27H15.6328L19.8399 16.8984C20.4727 15.3867 22.6055 15.3516 23.2852 16.8516L30.1055 32.0039L35.8477 20.5312C36.5391 19.1484 38.5078 19.1484 39.1993 20.5312L42.4336 27H56.3672C61.4649 20.7891 61.2188 11.4961 55.5118 5.66016Z" fill="#5DB47F"/>
</svg>
