<svg width="60" height="53" viewBox="0 0 60 53" fill="none" xmlns="http://www.w3.org/2000/svg">
<path d="M37.5252 24.8262L31.701 36.4746C30.9978 37.8926 28.9588 37.8457 28.3142 36.4043L21.6463 21.6035L18.1306 30.0059H7.1033L28.49 51.8613C29.3221 52.7168 30.6697 52.7168 31.5017 51.8613L52.9002 30.0059H40.115L37.5252 24.8262ZM55.5135 4.91602L55.2322 4.62305C49.1971 -1.54102 39.3181 -1.54102 33.2713 4.62305L30.0017 7.97461L26.7322 4.63477C20.6971 -1.54102 10.8064 -1.54102 4.77127 4.63477L4.49002 4.91602C-1.21701 10.752 -1.4631 20.0449 3.63455 26.2559H15.6346L19.8416 16.1543C20.4744 14.6426 22.6072 14.6074 23.2869 16.1074L30.1072 31.2598L35.8494 19.7871C36.5408 18.4043 38.5096 18.4043 39.201 19.7871L42.4353 26.2559H56.3689C61.4666 20.0449 61.2205 10.752 55.5135 4.91602Z" fill="black"/>
</svg>
