<svg width="32" height="32" viewBox="0 0 32 32" fill="none" xmlns="http://www.w3.org/2000/svg">
<ellipse cx="15.9864" cy="16.0295" rx="15.2297" ry="15.268" fill="#5DB47F"/>
<path d="M17.4555 6.21436C18.5646 6.21436 19.1192 7.1095 19.1192 8.13518C19.1192 9.41606 18.1557 10.6007 16.9017 10.6007C15.8514 10.6007 15.2389 9.86461 15.2679 8.64753C15.2679 7.62381 15.9971 6.21436 17.4555 6.21436ZM14.0429 25.8447C13.1671 25.8447 12.5257 25.2047 13.1382 22.3858L14.143 17.3879C14.3177 16.589 14.3466 16.268 14.143 16.268C13.8806 16.268 12.745 16.8196 12.0721 17.3644L11.6351 16.5006C13.7639 14.355 16.2131 13.0977 17.2643 13.0977C18.1392 13.0977 18.2848 14.3472 17.8478 16.268L16.6965 21.5211C16.4929 22.4486 16.5798 22.7686 16.7842 22.7686C17.0466 22.7686 17.9074 22.3838 18.7533 21.5839L19.2499 22.3829C17.179 24.8828 14.9169 25.8447 14.0429 25.8447Z" fill="white"/>
</svg>
