<svg width="31" height="31" viewBox="0 0 31 31" fill="none" xmlns="http://www.w3.org/2000/svg">
<ellipse cx="15.2297" cy="15.268" rx="15.2297" ry="15.268" fill="#FAC02E"/>
<path d="M15.0599 6C17.9999 6 19.9999 7.89 19.9999 10.53C20.0191 11.3529 19.8167 12.1659 19.4138 12.8837C19.0109 13.6015 18.4224 14.1978 17.7099 14.61C16.2899 15.53 15.8899 16.14 15.8899 17.32V18H13.3799V17.19C13.2884 16.423 13.4303 15.6463 13.7871 14.9613C14.1439 14.2762 14.699 13.7147 15.3799 13.35C16.7199 12.45 17.1699 11.82 17.1699 10.64C17.1752 10.3626 17.1255 10.0868 17.0236 9.8287C16.9217 9.57059 16.7696 9.33524 16.5762 9.13624C16.3828 8.93725 16.1519 8.77857 15.8968 8.66936C15.6416 8.56016 15.3674 8.50259 15.0899 8.5H14.9199C14.6179 8.48931 14.3166 8.53827 14.0335 8.64408C13.7503 8.74989 13.4908 8.91048 13.2698 9.11666C13.0487 9.32284 12.8705 9.57058 12.7453 9.84569C12.62 10.1208 12.5503 10.4179 12.5399 10.72V10.89H9.99994C9.9512 9.64392 10.3986 8.42936 11.2441 7.51267C12.0895 6.59599 13.264 6.052 14.5099 6C14.6931 5.98991 14.8767 5.98991 15.0599 6Z" fill="black"/>
<path d="M15 24C16.1046 24 17 23.1046 17 22C17 20.8954 16.1046 20 15 20C13.8954 20 13 20.8954 13 22C13 23.1046 13.8954 24 15 24Z" fill="black"/>
</svg>
