<svg width="31" height="31" viewBox="0 0 31 31" fill="none" xmlns="http://www.w3.org/2000/svg">
<ellipse cx="15.2297" cy="15.268" rx="15.2297" ry="15.268" fill="#FAC02E"/>
<path d="M8 24C7.45 24 6.97933 23.8043 6.588 23.413C6.19667 23.0217 6.00067 22.5507 6 22V8C6 7.45 6.196 6.97933 6.588 6.588C6.98 6.19667 7.45067 6.00067 8 6H14C14.2833 6 14.521 6.096 14.713 6.288C14.905 6.48 15.0007 6.71733 15 7C14.9993 7.28267 14.9033 7.52033 14.712 7.713C14.5207 7.90567 14.2833 8.00133 14 8H8V22H14C14.2833 22 14.521 22.096 14.713 22.288C14.905 22.48 15.0007 22.7173 15 23C14.9993 23.2827 14.9033 23.5203 14.712 23.713C14.5207 23.9057 14.2833 24.0013 14 24H8ZM20.175 16H13C12.7167 16 12.4793 15.904 12.288 15.712C12.0967 15.52 12.0007 15.2827 12 15C11.9993 14.7173 12.0953 14.48 12.288 14.288C12.4807 14.096 12.718 14 13 14H20.175L18.3 12.125C18.1167 11.9417 18.025 11.7167 18.025 11.45C18.025 11.1833 18.1167 10.95 18.3 10.75C18.4833 10.55 18.7167 10.4457 19 10.437C19.2833 10.4283 19.525 10.5243 19.725 10.725L23.3 14.3C23.5 14.5 23.6 14.7333 23.6 15C23.6 15.2667 23.5 15.5 23.3 15.7L19.725 19.275C19.525 19.475 19.2877 19.571 19.013 19.563C18.7383 19.555 18.5007 19.4507 18.3 19.25C18.1167 19.05 18.0293 18.8127 18.038 18.538C18.0467 18.2633 18.1423 18.034 18.325 17.85L20.175 16Z" fill="black"/>
</svg>
