<svg width="32" height="32" viewBox="0 0 32 32" fill="none" xmlns="http://www.w3.org/2000/svg">
<ellipse cx="15.9864" cy="16.0295" rx="15.2297" ry="15.268" fill="#5DB47F"/>
<path d="M8.99994 25C8.44994 25 7.97927 24.8043 7.58794 24.413C7.19661 24.0217 7.00061 23.5507 6.99994 23V9C6.99994 8.45 7.19594 7.97933 7.58794 7.588C7.97994 7.19667 8.45061 7.00067 8.99994 7H14.9999C15.2833 7 15.5209 7.096 15.7129 7.288C15.9049 7.48 16.0006 7.71733 15.9999 8C15.9993 8.28267 15.9033 8.52033 15.7119 8.713C15.5206 8.90567 15.2833 9.00133 14.9999 9H8.99994V23H14.9999C15.2833 23 15.5209 23.096 15.7129 23.288C15.9049 23.48 16.0006 23.7173 15.9999 24C15.9993 24.2827 15.9033 24.5203 15.7119 24.713C15.5206 24.9057 15.2833 25.0013 14.9999 25H8.99994ZM21.1749 17H13.9999C13.7166 17 13.4793 16.904 13.2879 16.712C13.0966 16.52 13.0006 16.2827 12.9999 16C12.9993 15.7173 13.0953 15.48 13.2879 15.288C13.4806 15.096 13.7179 15 13.9999 15H21.1749L19.2999 13.125C19.1166 12.9417 19.0249 12.7167 19.0249 12.45C19.0249 12.1833 19.1166 11.95 19.2999 11.75C19.4833 11.55 19.7166 11.4457 19.9999 11.437C20.2833 11.4283 20.5249 11.5243 20.7249 11.725L24.2999 15.3C24.4999 15.5 24.5999 15.7333 24.5999 16C24.5999 16.2667 24.4999 16.5 24.2999 16.7L20.7249 20.275C20.5249 20.475 20.2876 20.571 20.0129 20.563C19.7383 20.555 19.5006 20.4507 19.2999 20.25C19.1166 20.05 19.0293 19.8127 19.0379 19.538C19.0466 19.2633 19.1423 19.034 19.3249 18.85L21.1749 17Z" fill="white"/>
</svg>
