<svg width="19" height="19" viewBox="0 0 19 19" fill="none" xmlns="http://www.w3.org/2000/svg">
<path d="M6.34572 11.7391V12.2689C6.34572 13.3536 6.77551 14.3938 7.54055 15.1608C8.30558 15.9277 9.34319 16.3586 10.4251 16.3586C11.507 16.3586 12.5446 15.9277 13.3097 15.1608C14.0747 14.3938 14.5045 13.3536 14.5045 12.2689V10.7512C13.8994 10.5368 13.3894 10.1149 13.0646 9.55996C12.7398 9.00503 12.6212 8.35286 12.7297 7.71872C12.8382 7.08459 13.1668 6.50932 13.6575 6.0946C14.1481 5.67988 14.7693 5.45242 15.411 5.45242C16.0528 5.45242 16.6739 5.67988 17.1646 6.0946C17.6553 6.50932 17.9839 7.08459 18.0924 7.71872C18.2009 8.35286 18.0822 9.00503 17.7575 9.55996C17.4327 10.1149 16.9227 10.5368 16.3176 10.7512V12.2689C16.3176 13.8357 15.6968 15.3382 14.5917 16.446C13.4867 17.5538 11.9879 18.1762 10.4251 18.1762C8.86234 18.1762 7.36357 17.5538 6.25852 16.446C5.15347 15.3382 4.53266 13.8357 4.53266 12.2689V11.7391C3.2651 11.5243 2.1144 10.8664 1.28467 9.882C0.454937 8.89763 -0.000197095 7.65044 6.40285e-08 6.36168V1.81762C6.40285e-08 1.33556 0.191019 0.873239 0.531034 0.532369C0.871049 0.191499 1.33221 0 1.81306 0L2.71959 0C2.96002 0 3.1906 0.0957494 3.36061 0.266185C3.53062 0.43662 3.62613 0.667779 3.62613 0.908811C3.62613 1.14984 3.53062 1.381 3.36061 1.55144C3.1906 1.72187 2.96002 1.81762 2.71959 1.81762H1.81306V6.36168C1.81306 7.3258 2.1951 8.25044 2.87513 8.93218C3.55516 9.61392 4.47748 9.99692 5.43919 9.99692C6.4009 9.99692 7.32322 9.61392 8.00325 8.93218C8.68328 8.25044 9.06531 7.3258 9.06531 6.36168V1.81762H8.15878C7.91836 1.81762 7.68778 1.72187 7.51777 1.55144C7.34776 1.381 7.25225 1.14984 7.25225 0.908811C7.25225 0.667779 7.34776 0.43662 7.51777 0.266185C7.68778 0.0957494 7.91836 0 8.15878 0L9.06531 0C9.54617 0 10.0073 0.191499 10.3473 0.532369C10.6874 0.873239 10.8784 1.33556 10.8784 1.81762V6.36168C10.8786 7.65044 10.4234 8.89763 9.59371 9.882C8.76397 10.8664 7.61327 11.5243 6.34572 11.7391ZM15.411 9.08811C15.6515 9.08811 15.882 8.99236 16.052 8.82192C16.2221 8.65149 16.3176 8.42033 16.3176 8.1793C16.3176 7.93826 16.2221 7.70711 16.052 7.53667C15.882 7.36624 15.6515 7.27049 15.411 7.27049C15.1706 7.27049 14.94 7.36624 14.77 7.53667C14.6 7.70711 14.5045 7.93826 14.5045 8.1793C14.5045 8.42033 14.6 8.65149 14.77 8.82192C14.94 8.99236 15.1706 9.08811 15.411 9.08811Z" fill="black"/>
</svg>
