<svg width="30" height="33" viewBox="0 0 30 33" fill="none" xmlns="http://www.w3.org/2000/svg">
<path d="M19.7816 0.236816C20.198 0.237278 20.5985 0.396719 20.9012 0.682561C21.204 0.968404 21.3862 1.35907 21.4106 1.77475C21.435 2.19042 21.2998 2.59973 21.0325 2.91903C20.7653 3.23834 20.3862 3.44355 19.9727 3.49273L19.7816 3.50416C18.6494 3.50416 17.6088 4.63793 17.019 6.03962C18.0268 5.52672 19.1285 5.22434 20.257 5.1509L20.6899 5.13784C25.5615 5.13784 29.5836 10.1254 29.5836 15.4626C29.5836 21.2573 28.5936 25.0392 25.6252 29.4763C22.861 33.1537 18.9402 33.9738 15.1534 31.4922C15.0765 31.4431 14.9878 31.4157 14.8967 31.4128C14.8055 31.41 14.7153 31.4318 14.6355 31.4759C10.8209 33.9722 6.90005 33.1537 4.08197 29.4011C1.16913 25.0425 0.17749 21.2589 0.17749 15.4626L0.184025 15.1C0.360462 9.90326 4.31068 5.13784 9.07121 5.13784C10.6069 5.13784 12.0968 5.61323 13.4625 6.4317C14.147 3.24604 16.4325 0.236816 19.7816 0.236816ZM8.29031 10.2904C6.06852 11.6921 5.07851 13.6558 5.07851 16.5735C5.07851 17.0068 5.25063 17.4224 5.557 17.7287C5.86337 18.0351 6.2789 18.2072 6.71218 18.2072C7.14546 18.2072 7.56099 18.0351 7.86736 17.7287C8.17374 17.4224 8.34585 17.0068 8.34585 16.5735C8.34585 14.7357 8.80328 13.8322 10.0351 13.0546C10.4016 12.8232 10.6613 12.4557 10.7568 12.0329C10.8524 11.6101 10.7761 11.1667 10.5448 10.8001C10.3134 10.4336 9.9459 10.174 9.52311 10.0784C9.10031 9.98279 8.65686 10.0591 8.29031 10.2904Z" fill="#5DB47F"/>
</svg>
