<svg width="34" height="34" viewBox="0 0 34 34" fill="none" xmlns="http://www.w3.org/2000/svg">
<path fill-rule="evenodd" clip-rule="evenodd" d="M23.1186 9.90179C23.2562 9.85617 23.4035 9.84802 23.5454 9.87817C23.6872 9.90832 23.8185 9.97568 23.9257 10.0733L28.4186 14.1579C28.5229 14.2527 28.6009 14.3728 28.6449 14.5067C28.689 14.6405 28.6978 14.7835 28.6703 14.9217L27.4449 21.0484C27.415 21.198 27.3438 21.3361 27.2394 21.4473C27.135 21.5584 27.0016 21.6382 26.8543 21.6775L20.7275 23.3113C20.604 23.3442 20.4744 23.3477 20.3493 23.3215C20.2241 23.2952 20.1069 23.24 20.007 23.1601L17.9647 21.5263C17.7955 21.3909 17.687 21.1938 17.6631 20.9784C17.6513 20.8718 17.6606 20.7638 17.6905 20.6608C17.7204 20.5577 17.7702 20.4615 17.8373 20.3778C17.9043 20.294 17.9872 20.2242 18.0812 20.1725C18.1753 20.1207 18.2785 20.088 18.3852 20.0762C18.6006 20.0523 18.8167 20.1149 18.9859 20.2503L19.9956 21.0591L20.8451 17.0922L17.6282 14.1677L17.6159 14.2028C17.5838 14.3067 17.5313 14.4032 17.4614 14.4866C17.3915 14.57 17.3056 14.6386 17.2089 14.6883C17.1121 14.7381 17.0064 14.768 16.8979 14.7763C16.7894 14.7847 16.6804 14.7712 16.5771 14.7369C16.4739 14.7025 16.3786 14.6478 16.2968 14.5761C16.215 14.5043 16.1483 14.417 16.1007 14.3192C16.0532 14.2213 16.0256 14.1149 16.0197 14.0063C16.0137 13.8977 16.0296 13.7889 16.0662 13.6865L16.4747 12.4611C16.5148 12.3407 16.5824 12.2313 16.6722 12.1415C16.7619 12.0517 16.8714 11.9841 16.9918 11.944L23.1186 9.90179ZM18.8315 13.0534L21.9553 15.8938L24.3774 15.201C24.5858 15.1415 24.8094 15.1671 24.9989 15.2724C25.1884 15.3776 25.3284 15.5538 25.3879 15.7623C25.4475 15.9707 25.4219 16.1942 25.3166 16.3837C25.2114 16.5732 25.0351 16.7132 24.8267 16.7728L22.4389 17.4549L21.5959 21.3891L25.9426 20.2299L26.9776 15.0548L23.1807 11.6034L18.8315 13.0534ZM10.1372 12.9586C10.2389 12.8568 10.3658 12.7837 10.505 12.7466C10.6442 12.7096 10.7906 12.7101 10.9296 12.7479L15.4225 13.9732C15.5626 14.0115 15.6899 14.0864 15.7915 14.1902C15.893 14.294 15.965 14.423 16.0001 14.5639L17.2254 19.4653C17.2616 19.6101 17.2574 19.762 17.2134 19.9045C17.1693 20.0471 17.087 20.1749 16.9755 20.274L13.2994 23.5416C13.1978 23.6318 13.0754 23.6952 12.9432 23.7262C12.811 23.7571 12.6731 23.7546 12.5421 23.7189L8.04916 22.4935C7.91191 22.4562 7.78681 22.3836 7.68623 22.283C7.58565 22.1824 7.51308 22.0573 7.47569 21.9201L6.25033 17.4271C6.21251 17.2882 6.21208 17.1417 6.2491 17.0025C6.28611 16.8634 6.35925 16.7365 6.4611 16.6347L10.1372 12.9586ZM10.9573 14.4495L8.612 16.794L11.289 17.5251L13.6343 15.179L10.9573 14.4495ZM14.7649 16.3594L12.4449 18.6794L13.1989 21.4455L15.5206 19.3811L14.7649 16.3594ZM11.5929 21.7665L10.8658 19.1034L8.20273 18.3763L8.92978 21.0394L11.5929 21.7665Z" fill="#5DB47F"/>
<path fill-rule="evenodd" clip-rule="evenodd" d="M33.5881 16.804C33.5881 25.8276 26.2735 33.1421 17.25 33.1421C8.22651 33.1421 0.911957 25.8276 0.911957 16.804C0.911957 7.78053 8.22651 0.465973 17.25 0.465973C26.2735 0.465973 33.5881 7.78053 33.5881 16.804ZM31.9543 16.804C31.9543 20.6059 30.5116 24.0704 28.1442 26.6804L24.9502 23.4863C24.796 23.3376 24.5896 23.2554 24.3754 23.2574C24.1612 23.2594 23.9564 23.3455 23.805 23.4971C23.6537 23.6486 23.5679 23.8536 23.5662 24.0678C23.5645 24.282 23.647 24.4883 23.7959 24.6422L26.9818 27.8282C24.2976 30.2045 20.835 31.5139 17.25 31.5083C9.12919 31.5083 2.54576 24.9249 2.54576 16.804C2.54576 13.0724 3.93613 9.66512 6.22673 7.07227L9.36691 10.2133C9.52008 10.3665 9.72788 10.4527 9.94458 10.4528C10.1613 10.4529 10.3691 10.3668 10.5224 10.2137C10.6757 10.0605 10.7619 9.8527 10.7619 9.636C10.762 9.4193 10.676 9.21145 10.5228 9.05816L7.37448 5.90982C10.0763 3.45316 13.5983 2.09434 17.25 2.09978C25.3709 2.09978 31.9543 8.6832 31.9543 16.804Z" fill="#5DB47F"/>
</svg>
