<svg width="17" height="24" viewBox="0 0 17 24" fill="none" xmlns="http://www.w3.org/2000/svg">
<path d="M10.4937 20.3075C9.9232 21.534 8.89002 22.4832 7.62147 22.946C6.35292 23.4089 4.95291 23.3476 3.72942 22.7757C2.50594 22.2037 1.55921 21.1679 1.09749 19.8962C0.635775 18.6245 0.696901 17.2209 1.26742 15.9944L7.13299 3.38399C7.70351 2.15743 8.73669 1.20832 10.0052 0.74544C11.2738 0.282564 12.6738 0.343843 13.8973 0.915797C15.1208 1.48775 16.0675 2.52353 16.5292 3.79527C16.9909 5.06701 16.9298 6.47054 16.3593 7.6971L10.4937 20.3075ZM4.36589 21.4073C4.79244 21.6069 5.25402 21.7202 5.72426 21.7408C6.19451 21.7615 6.6642 21.689 7.10651 21.5276C7.54882 21.3662 7.95508 21.1191 8.30207 20.8002C8.64907 20.4814 8.93 20.0971 9.12882 19.6694L11.7437 14.0477L5.24718 11.0108L2.63138 16.6328C2.43235 17.0604 2.31931 17.5231 2.29872 17.9946C2.27813 18.466 2.3504 18.9369 2.51138 19.3803C2.67237 19.8237 2.91893 20.231 3.23697 20.5789C3.55501 20.9267 3.93925 21.208 4.36589 21.4073ZM7.78188 5.5008C7.70574 5.68082 7.70227 5.88344 7.7722 6.06598C7.84214 6.24852 7.98001 6.39672 8.15679 6.47935C8.33356 6.56199 8.53542 6.57262 8.71986 6.50899C8.90429 6.44536 9.05689 6.31246 9.1455 6.13826L10.0103 4.2808C10.1766 3.92263 10.4765 3.64415 10.8454 3.50513C11.2143 3.36612 11.6228 3.37767 11.9833 3.5373L12.0049 3.54658C12.0953 3.58663 12.1927 3.60844 12.2915 3.61075C12.3904 3.61307 12.4887 3.59585 12.5809 3.56007C12.6731 3.52429 12.7573 3.47066 12.8288 3.40223C12.9004 3.33381 12.9577 3.25194 12.9977 3.16128C13.0377 3.07063 13.0594 2.97298 13.0617 2.87389C13.064 2.77481 13.0468 2.67624 13.0112 2.58382C12.9755 2.4914 12.922 2.40692 12.8537 2.33523C12.7855 2.26353 12.7038 2.20601 12.6134 2.16595L12.5918 2.15667C11.8709 1.83725 11.0538 1.81396 10.3159 2.09181C9.57804 2.36966 8.97826 2.92648 8.64536 3.64273L7.78188 5.5008Z" fill="black"/>
</svg>
