<svg width="111" height="78" viewBox="0 0 111 78" fill="none" xmlns="http://www.w3.org/2000/svg">
<path d="M79.9871 65.1626C78.4177 68.5282 75.5756 71.1325 72.0861 72.4026C68.5965 73.6727 64.7454 73.5045 61.3798 71.9352C58.0142 70.3658 55.4099 67.5237 54.1398 64.0341C52.8697 60.5446 53.0379 56.6934 54.6073 53.3279L70.7423 18.7261C72.3117 15.3605 75.1538 12.7562 78.6434 11.4862C82.1329 10.2161 85.9841 10.3842 89.3496 11.9536C92.7152 13.523 95.3195 16.3651 96.5896 19.8546C97.8597 23.3442 97.6915 27.1953 96.1221 30.5609L79.9871 65.1626ZM63.1306 68.1806C64.3039 68.728 65.5737 69.039 66.8672 69.0956C68.1608 69.1523 69.4528 68.9535 70.6695 68.5106C71.8862 68.0678 73.0038 67.3896 73.9583 66.5147C74.9128 65.6398 75.6856 64.5855 76.2325 63.4118L83.4254 47.9865L65.5548 39.6533L58.3593 55.0796C57.8118 56.2529 57.5008 57.5227 57.4442 58.8162C57.3876 60.1098 57.5863 61.4018 58.0292 62.6185C58.472 63.8352 59.1503 64.9528 60.0251 65.9073C60.9 66.8618 61.957 67.6336 63.1306 68.1806ZM72.5273 24.5344C72.3179 25.0284 72.3083 25.5844 72.5007 26.0852C72.6931 26.5861 73.0723 26.9928 73.5586 27.2195C74.0449 27.4463 74.6002 27.4754 75.1075 27.3008C75.6149 27.1262 76.0346 26.7616 76.2784 26.2836L78.6572 21.1869C79.1148 20.2041 79.9396 19.4399 80.9544 19.0585C81.9692 18.6771 83.093 18.7088 84.0847 19.1468L84.1439 19.1722C84.3927 19.2821 84.6606 19.342 84.9325 19.3483C85.2044 19.3547 85.4748 19.3074 85.7284 19.2092C85.9821 19.1111 86.2138 18.9639 86.4106 18.7762C86.6073 18.5884 86.7651 18.3638 86.875 18.115C86.9849 17.8663 87.0448 17.5983 87.0511 17.3264C87.0575 17.0546 87.0102 16.7841 86.9121 16.5305C86.8139 16.2769 86.6667 16.0451 86.479 15.8484C86.2912 15.6516 86.0666 15.4938 85.8178 15.3839L85.7586 15.3585C83.7755 14.482 81.5277 14.4181 79.498 15.1805C77.4682 15.9429 75.8183 17.4707 74.9026 19.4361L72.5273 24.5344Z" fill="black"/>
<path d="M30.6247 12.0288C32.1941 8.66319 35.0362 6.0589 38.5257 4.78881C42.0153 3.51872 45.8665 3.68687 49.232 5.25626C52.5976 6.82565 55.2019 9.66773 56.472 13.1573C57.7421 16.6468 57.5739 20.498 56.0045 23.8636L39.8695 58.4653C38.3001 61.8309 35.458 64.4352 31.9685 65.7052C28.4789 66.9753 24.6277 66.8072 21.2622 65.2378C17.8966 63.6684 15.2923 60.8263 14.0222 57.3368C12.7521 53.8472 12.9203 49.9961 14.4897 46.6305L30.6247 12.0288ZM47.4812 9.01085C46.3079 8.46336 45.0382 8.15241 43.7446 8.09577C42.451 8.03913 41.159 8.23791 39.9423 8.68076C38.7256 9.1236 37.6081 9.80184 36.6535 10.6767C35.699 11.5516 34.9262 12.6059 34.3793 13.7796L27.1864 29.2049L45.057 37.5381L52.2525 22.1118C52.8 20.9385 53.111 19.6687 53.1676 18.3752C53.2243 17.0816 53.0255 15.7896 52.5826 14.5729C52.1398 13.3562 51.4615 12.2386 50.5867 11.2841C49.7118 10.3296 48.6548 9.55777 47.4812 9.01085ZM38.0845 52.657C38.2939 52.163 38.3035 51.607 38.1111 51.1062C37.9187 50.6053 37.5395 50.1987 37.0532 49.9719C36.5669 49.7452 36.0116 49.716 35.5043 49.8906C34.997 50.0652 34.5772 50.4299 34.3334 50.9078L31.9546 56.0045C31.497 56.9873 30.6722 57.7515 29.6574 58.1329C28.6427 58.5143 27.5188 58.4826 26.5271 58.0446L26.4679 58.0192C26.2191 57.9093 25.9512 57.8494 25.6793 57.8431C25.4074 57.8367 25.137 57.884 24.8834 57.9822C24.6298 58.0803 24.398 58.2275 24.2012 58.4152C24.0045 58.603 23.8467 58.8276 23.7368 59.0764C23.6269 59.3251 23.567 59.5931 23.5607 59.865C23.5543 60.1368 23.6016 60.4073 23.6998 60.6609C23.7979 60.9145 23.9451 61.1463 24.1328 61.343C24.3206 61.5398 24.5452 61.6976 24.794 61.8075L24.8532 61.8329C26.8364 62.7094 29.0841 62.7733 31.1139 62.0109C33.1436 61.2485 34.7935 59.7207 35.7092 57.7553L38.0845 52.657Z" fill="black"/>
</svg>
