<svg width="111" height="78" viewBox="0 0 111 78" fill="none" xmlns="http://www.w3.org/2000/svg">
<path d="M79.9871 65.1628C78.4177 68.5283 75.5756 71.1326 72.0861 72.4027C68.5965 73.6728 64.7454 73.5047 61.3798 71.9353C58.0142 70.3659 55.4099 67.5238 54.1398 64.0343C52.8697 60.5447 53.0379 56.6935 54.6073 53.328L70.7423 18.7262C72.3117 15.3606 75.1538 12.7564 78.6434 11.4863C82.1329 10.2162 85.9841 10.3843 89.3496 11.9537C92.7152 13.5231 95.3195 16.3652 96.5896 19.8547C97.8597 23.3443 97.6915 27.1955 96.1221 30.561L79.9871 65.1628ZM63.1306 68.1807C64.3039 68.7282 65.5737 69.0391 66.8672 69.0958C68.1608 69.1524 69.4528 68.9536 70.6695 68.5108C71.8862 68.0679 73.0038 67.3897 73.9583 66.5148C74.9128 65.64 75.6856 64.5856 76.2325 63.412L83.4254 47.9866L65.5548 39.6534L58.3593 55.0797C57.8118 56.2531 57.5008 57.5228 57.4442 58.8163C57.3876 60.1099 57.5863 61.4019 58.0292 62.6186C58.472 63.8354 59.1503 64.9529 60.0251 65.9074C60.9 66.8619 61.957 67.6338 63.1306 68.1807ZM72.5273 24.5346C72.3179 25.0285 72.3083 25.5845 72.5007 26.0854C72.6931 26.5862 73.0723 26.9929 73.5586 27.2196C74.0449 27.4464 74.6002 27.4755 75.1075 27.3009C75.6149 27.1264 76.0346 26.7617 76.2784 26.2837L78.6572 21.187C79.1148 20.2042 79.9396 19.4401 80.9544 19.0586C81.9691 18.6772 83.093 18.7089 84.0847 19.1469L84.1439 19.1723C84.3927 19.2823 84.6606 19.3421 84.9325 19.3484C85.2044 19.3548 85.4748 19.3075 85.7284 19.2094C85.9821 19.1112 86.2138 18.964 86.4106 18.7763C86.6073 18.5885 86.7651 18.3639 86.875 18.1151C86.9849 17.8664 87.0448 17.5984 87.0511 17.3266C87.0575 17.0547 87.0102 16.7842 86.9121 16.5306C86.8139 16.277 86.6667 16.0452 86.479 15.8485C86.2912 15.6518 86.0666 15.4939 85.8178 15.384L85.7586 15.3586C83.7755 14.4821 81.5277 14.4182 79.498 15.1806C77.4682 15.943 75.8183 17.4709 74.9026 19.4362L72.5273 24.5346Z" fill="#5DB47F"/>
<path d="M30.6247 12.0289C32.1941 8.66331 35.0362 6.05902 38.5257 4.78893C42.0153 3.51884 45.8665 3.68699 49.232 5.25638C52.5976 6.82577 55.2019 9.66785 56.472 13.1574C57.7421 16.6469 57.5739 20.4981 56.0045 23.8637L39.8695 58.4654C38.3001 61.831 35.458 64.4353 31.9685 65.7054C28.4789 66.9755 24.6277 66.8073 21.2622 65.2379C17.8966 63.6685 15.2923 60.8265 14.0222 57.3369C12.7521 53.8474 12.9203 49.9962 14.4897 46.6306L30.6247 12.0289ZM47.4812 9.01098C46.3079 8.46348 45.0382 8.15253 43.7446 8.09589C42.4511 8.03925 41.159 8.23803 39.9423 8.68088C38.7256 9.12373 37.6081 9.80196 36.6535 10.6768C35.699 11.5517 34.9262 12.6061 34.3793 13.7797L27.1864 29.205L45.057 37.5382L52.2525 22.1119C52.8 20.9386 53.111 19.6689 53.1676 18.3753C53.2243 17.0818 53.0255 15.7897 52.5826 14.573C52.1398 13.3563 51.4615 12.2388 50.5867 11.2842C49.7118 10.3297 48.6548 9.55789 47.4812 9.01098ZM38.0845 52.6571C38.2939 52.1631 38.3035 51.6071 38.1111 51.1063C37.9187 50.6054 37.5395 50.1988 37.0532 49.972C36.5669 49.7453 36.0116 49.7161 35.5043 49.8907C34.997 50.0653 34.5772 50.43 34.3334 50.9079L31.9546 56.0047C31.497 56.9874 30.6722 57.7516 29.6574 58.133C28.6427 58.5144 27.5188 58.4828 26.5271 58.0448L26.4679 58.0193C26.2191 57.9094 25.9512 57.8496 25.6793 57.8432C25.4074 57.8369 25.137 57.8841 24.8834 57.9823C24.6298 58.0804 24.398 58.2276 24.2012 58.4154C24.0045 58.6031 23.8467 58.8278 23.7368 59.0765C23.6269 59.3253 23.567 59.5932 23.5607 59.8651C23.5543 60.137 23.6016 60.4074 23.6998 60.661C23.7979 60.9146 23.9451 61.1464 24.1328 61.3431C24.3206 61.5399 24.5452 61.6977 24.794 61.8076L24.8532 61.8331C26.8363 62.7095 29.0841 62.7734 31.1139 62.011C33.1436 61.2487 34.7935 59.7208 35.7092 57.7555L38.0845 52.6571Z" fill="#5DB47F"/>
</svg>
