<svg width="31" height="26" viewBox="0 0 31 26" fill="none" xmlns="http://www.w3.org/2000/svg">
<path d="M30.8125 14.0469C30.8124 14.9673 30.4807 15.857 29.878 16.5527C29.2754 17.2485 28.4423 17.7039 27.5312 17.8354V23.3438C27.5312 23.9239 27.3008 24.4803 26.8905 24.8905C26.4803 25.3008 25.9239 25.5312 25.3438 25.5312H5.65625C5.07609 25.5312 4.51969 25.3008 4.10945 24.8905C3.69922 24.4803 3.46875 23.9239 3.46875 23.3438V17.8354C2.74248 17.7305 2.06164 17.4192 1.50731 16.9384C0.952984 16.4576 0.548523 15.8276 0.342096 15.1234C0.135669 14.4192 0.135974 13.6706 0.342976 12.9666C0.549978 12.2626 0.954953 11.6329 1.50967 11.1526C2.0644 10.6722 2.74549 10.3614 3.47184 10.2572C4.1982 10.1529 4.93921 10.2597 5.60663 10.5646C6.27404 10.8696 6.83975 11.36 7.23637 11.9774C7.633 12.5947 7.84382 13.3131 7.84375 14.0469V18.9688C7.84375 19.2588 7.95898 19.537 8.1641 19.7421C8.36922 19.9473 8.64742 20.0625 8.9375 20.0625C9.22758 20.0625 9.50578 19.9473 9.7109 19.7421C9.91602 19.537 10.0312 19.2588 10.0312 18.9688V15.6875H20.9688V18.9688C20.9688 19.2588 21.084 19.537 21.2891 19.7421C21.4942 19.9473 21.7724 20.0625 22.0625 20.0625C22.3526 20.0625 22.6308 19.9473 22.8359 19.7421C23.041 19.537 23.1562 19.2588 23.1562 18.9688V14.0469C23.1562 13.0316 23.5596 12.0579 24.2775 11.34C24.9954 10.6221 25.9691 10.2188 26.9844 10.2188C27.9997 10.2188 28.9734 10.6221 29.6913 11.34C30.4092 12.0579 30.8125 13.0316 30.8125 14.0469ZM4.01562 8.03125C5.51567 8.03338 6.96096 8.59511 8.06873 9.60654C9.1765 10.618 9.86705 12.0063 10.0053 13.5H20.9947C21.1329 12.0063 21.8235 10.618 22.9313 9.60654C24.039 8.59511 25.4843 8.03338 26.9844 8.03125C27.1294 8.03125 27.2685 7.97363 27.3711 7.87107C27.4736 7.76852 27.5312 7.62942 27.5312 7.48438V5.84375C27.5312 4.39335 26.9551 3.00235 25.9295 1.97676C24.9039 0.95117 23.5129 0.375 22.0625 0.375H8.9375C7.4871 0.375 6.0961 0.95117 5.07051 1.97676C4.04492 3.00235 3.46875 4.39335 3.46875 5.84375V7.48438C3.46875 7.62942 3.52637 7.76852 3.62893 7.87107C3.73149 7.97363 3.87058 8.03125 4.01562 8.03125Z" fill="#5DB47F"/>
</svg>
