<svg width="68" height="36" viewBox="0 0 68 36" fill="none" xmlns="http://www.w3.org/2000/svg">
<path d="M57.3333 0C57.7865 0.00050879 58.2223 0.176154 58.5518 0.491046C58.8813 0.805939 59.0795 1.23631 59.1061 1.69423C59.1326 2.15215 58.9855 2.60306 58.6946 2.95481C58.4038 3.30657 57.9913 3.53263 57.5413 3.58681L57.3333 3.59941C56.1013 3.59941 54.9689 4.8484 54.3271 6.39255C55.4238 5.82752 56.6227 5.49441 57.8507 5.41351L58.3218 5.39911C63.6231 5.39911 68 10.8936 68 16.7732C68 23.1568 66.9227 27.3231 63.6924 32.2111C60.6844 36.2622 56.4178 37.1657 52.2969 34.4319C52.2133 34.3779 52.1167 34.3476 52.0176 34.3445C51.9184 34.3413 51.8202 34.3653 51.7333 34.4139C47.5822 37.1639 43.3156 36.2622 40.2489 32.1283C37.0791 27.3267 36 23.1586 36 16.7732L36.0071 16.3737C36.1991 10.6489 40.4978 5.39911 45.6782 5.39911C47.3493 5.39911 48.9707 5.92283 50.4569 6.82448C51.2018 3.31505 53.6889 0 57.3333 0ZM44.8284 11.0754C42.4107 12.6195 41.3333 14.7828 41.3333 17.997C41.3333 18.4744 41.5206 18.9321 41.854 19.2696C42.1874 19.6071 42.6396 19.7967 43.1111 19.7967C43.5826 19.7967 44.0348 19.6071 44.3682 19.2696C44.7016 18.9321 44.8889 18.4744 44.8889 17.997C44.8889 15.9724 45.3867 14.9771 46.7271 14.1205C47.126 13.8656 47.4085 13.4607 47.5125 12.995C47.6166 12.5292 47.5336 12.0407 47.2818 11.6369C47.03 11.2331 46.6301 10.9471 46.17 10.8418C45.7099 10.7365 45.2273 10.8205 44.8284 11.0754Z" fill="#5DB47F"/>
<path d="M32.0399 13.3582L30.6858 12.0041L31.6305 11.0082C31.8837 10.7562 32.0103 10.4722 32.0103 10.1559C32.0103 9.84103 31.8837 9.55696 31.6305 9.30372L26.6943 4.36951C26.4424 4.11758 26.159 3.99162 25.8441 3.99162C25.5292 3.99162 25.2451 4.11758 24.9918 4.36951L23.996 5.31423L22.5926 3.91093L23.6909 2.76348C24.2682 2.18615 24.9761 1.90602 25.8145 1.92307C26.653 1.94013 27.3609 2.23667 27.9382 2.81269L33.1873 8.06377C33.7646 8.6411 34.0533 9.34046 34.0533 10.1618C34.0533 10.9832 33.7646 11.6826 33.1873 12.2599L32.0399 13.3582ZM11.2599 34.1873C10.6826 34.7646 9.98322 35.0533 9.16184 35.0533C8.34046 35.0533 7.6411 34.7646 7.06377 34.1873L1.9662 29.0898C1.36263 28.4862 1.06084 27.7357 1.06084 26.8382C1.06084 25.9407 1.36263 25.1908 1.9662 24.5885L2.91093 23.6419L4.3162 25.0471L3.3577 25.9918C3.10578 26.2451 2.97981 26.5292 2.97981 26.8441C2.97981 27.159 3.10578 27.443 3.3577 27.6963L8.30569 32.6423C8.55761 32.8955 8.84103 33.0222 9.15594 33.0222C9.47084 33.0222 9.75492 32.8955 10.0082 32.6423L10.9529 31.6858L12.3582 33.0891L11.2599 34.1873ZM30.4161 20.7959L32.6539 18.5581C32.9059 18.3061 33.0318 18.0162 33.0318 17.6881C33.0318 17.3601 32.9059 17.0701 32.6539 16.8182L19.1818 3.34803C18.9299 3.09479 18.6399 2.96817 18.3119 2.96817C17.9838 2.96817 17.6939 3.09414 17.4419 3.34606L15.2041 5.58387C14.9522 5.8358 14.8262 6.11987 14.8262 6.43609C14.8262 6.751 14.9522 7.03507 15.2041 7.28831L28.7137 20.7959C28.9656 21.0478 29.249 21.1738 29.5639 21.1738C29.8788 21.1738 30.1629 21.0478 30.4161 20.7959ZM17.5089 33.7031L19.7467 31.4535C19.9986 31.2016 20.1246 30.9182 20.1246 30.6033C20.1246 30.2884 19.9986 30.0043 19.7467 29.7511L6.24895 16.2533C5.99702 16.0014 5.71295 15.8754 5.39673 15.8754C5.08182 15.8754 4.7984 16.0014 4.54648 16.2533L2.29686 18.4911C2.04493 18.7431 1.91897 19.033 1.91897 19.3611C1.91897 19.6891 2.04493 19.9791 2.29686 20.231L15.769 33.7012C16.0209 33.9544 16.3109 34.081 16.6389 34.081C16.967 34.081 17.2569 33.9551 17.5089 33.7031ZM16.1154 23.325L22.2856 17.1646L18.8334 13.7144L12.675 19.8846L16.1154 23.325ZM18.8748 35.0946C18.2725 35.6982 17.5272 36 16.6389 36C15.7506 36 15.0047 35.6982 14.4011 35.0946L0.905359 21.5989C0.301786 20.9953 0 20.2494 0 19.3611C0 18.4728 0.301786 17.7275 0.905359 17.1252L3.1412 14.85C3.74478 14.2465 4.4953 13.9447 5.39279 13.9447C6.29028 13.9447 7.04015 14.2465 7.64241 14.85L11.2717 18.4793L17.4419 12.3091L13.8126 8.69162C13.2091 8.08804 12.9073 7.3362 12.9073 6.43609C12.9073 5.53598 13.2091 4.78414 13.8126 4.18057L16.0859 1.90536C16.6894 1.30179 17.4393 1 18.3355 1C19.2317 1 19.9822 1.30179 20.5871 1.90536L34.0946 15.4129C34.6982 16.0165 35 16.767 35 17.6645C35 18.562 34.6982 19.3119 34.0946 19.9141L31.8214 22.1893C31.2178 22.7929 30.4653 23.0947 29.5639 23.0947C28.6625 23.0947 27.9106 22.7929 27.3084 22.1893L23.6909 18.5581L17.5207 24.7283L21.15 28.3576C21.7535 28.9612 22.0553 29.7117 22.0553 30.6092C22.0553 31.5067 21.7535 32.2565 21.15 32.8588L18.8748 35.0946Z" fill="#5DB47F"/>
</svg>
