<svg width="25" height="41" viewBox="0 0 25 41" fill="none" xmlns="http://www.w3.org/2000/svg">
<path d="M9.42886 25.4479L6.44938 38.8327C6.3577 39.2605 6.13585 39.6119 5.78381 39.8869C5.43177 40.162 5.02717 40.2995 4.57001 40.2995C3.95884 40.2995 3.4699 40.0703 3.10319 39.6119C2.73649 39.1535 2.61425 38.634 2.73649 38.0534L7.41198 14.4468L4.11163 15.7302V20.1307C4.11163 20.6502 3.93561 21.086 3.58358 21.438C3.23154 21.79 2.79638 21.9654 2.27811 21.9642C1.75983 21.963 1.32467 21.787 0.972636 21.4362C0.620599 21.0854 0.44458 20.6502 0.44458 20.1307V14.5384C0.44458 14.1717 0.544202 13.8435 0.743445 13.5538C0.942688 13.2641 1.20977 13.0423 1.5447 12.8883L9.70389 9.40457C10.1317 9.22122 10.5828 9.11426 11.057 9.0837C11.5313 9.05314 11.9817 9.11426 12.4083 9.26706C12.8349 9.41985 13.2401 9.63376 13.624 9.90879C14.0078 10.1838 14.3207 10.5352 14.5627 10.9631L16.3963 13.8967C16.7935 14.5079 17.2598 15.0885 17.7952 15.6386C18.3306 16.1886 18.9339 16.6623 19.6049 17.0595C20.0328 17.304 20.5064 17.5259 21.0259 17.7251C21.5454 17.9244 22.0649 18.0692 22.5844 18.1597C23.0734 18.2513 23.4786 18.4732 23.8 18.8252C24.1215 19.1773 24.2816 19.6124 24.2804 20.1307C24.2792 20.649 24.0958 21.0768 23.7304 21.4142C23.3649 21.7515 22.9218 21.8891 22.4011 21.8267C20.6898 21.5822 19.1539 21.0475 17.7934 20.2224C16.4329 19.3973 15.2491 18.4041 14.2419 17.2429L13.0959 22.881L16.3963 25.998C16.5796 26.1813 16.7171 26.3879 16.8088 26.6177C16.9005 26.8475 16.9463 27.084 16.9463 27.3273V38.466C16.9463 38.9855 16.7703 39.4212 16.4183 39.7733C16.0662 40.1253 15.6311 40.3007 15.1128 40.2995C14.5945 40.2983 14.1594 40.1222 13.8073 39.7714C13.4553 39.4206 13.2793 38.9855 13.2793 38.466V28.3816L9.42886 25.4479ZM14.196 8.21278C13.1876 8.21278 12.3246 7.85402 11.6071 7.1365C10.8896 6.41898 10.5302 5.55539 10.529 4.54573C10.5278 3.53606 10.8871 2.67309 11.6071 1.95679C12.3271 1.24049 13.19 0.881119 14.196 0.878674C15.202 0.87623 16.0656 1.2356 16.7868 1.95679C17.508 2.67797 17.8667 3.54095 17.8631 4.54573C17.8594 5.5505 17.5007 6.41409 16.7868 7.1365C16.0729 7.85891 15.2094 8.21767 14.196 8.21278Z" fill="#5DB47F"/>
</svg>
